<svg width="1600" height="900" viewBox="0 0 1600 900" fill="none" xmlns="http://www.w3.org/2000/svg">
<path d="M1558.9 722.712L1376.56 713L1130.19 723.474L1051.45 728.082L1028.5 733.395L935.893 742.212L786.429 757.217L721.028 769.271L646.648 782.677L646.272 781.383L721.247 764.72L745.424 760.912L659.638 756.932L552.495 769.29H496.636L645.849 751.047L472.913 758.703L399.505 768.453L275.472 765.177L341.28 755.827L399.944 748.934L460.143 735.642L125.115 735.737L32.0582 744.478L0 747.525V900H1600.98V813.393L1602.55 777.06L1607 728.71L1558.9 722.712ZM494.098 784.125L411.492 791.818V788.943L450.366 785.972L406.838 788.847L321.099 791.628L320.66 788.486L405.334 779.821L492.562 773.899L495.069 782.411L494.098 784.125ZM497.184 802.292L496.871 800.14L617.081 783.135L617.645 787.134L497.184 802.292ZM915.477 800.768L898.304 799.683L895.436 799.492L887.1 802.349L883.371 793.97L928.137 786.429L931.725 792.389L915.477 800.768ZM748.229 807.167L747.179 803.586L884.672 780.411L882.541 780.659L798.04 789.838L627.564 806.31L627.391 805.148L796.708 780.545L881.037 769.309L923.264 764.111L944.401 761.502L957.751 762.454L1004.38 763.673L1077.16 758.131L748.229 807.167Z" fill="#242037"/>
<g clip-path="url(#clip0_1_319)">
<g clip-path="url(#clip1_1_319)">
<path d="M597.954 835.519L560.17 1022.38L-158.286 877.112L-29.1493 245.488L-7.77257 140.957L-6.24632 133.517L-2.75988 116.383L0.381918 101.061L0.350224 90.1761L0.339005 77.5659L0.324219 74.6079L10.9121 83.8407L24.1584 95.406L24.213 95.4608L81.3813 145.391L174.606 222.356L182.601 238.134L195.222 314.824L197.04 314.491L230.045 308.447L231.508 308.896L290.914 327.081L290.935 327.085L294.791 328.258L294.981 330.026L299.703 373.467L301.299 380.838L310.345 422.92L310.709 427.831L311.228 435.006L312.634 454.356L313.501 466.198L317.79 511.565L318.234 516.295L324.006 536.571L328.684 553.058L332.046 553.103L341.736 553.245L346.124 553.301L346.515 553.314L359.34 541.198L361.908 538.785L363.097 537.668L394.024 545.038L394.953 549.537L403.091 589.182L404.432 595.757L407.809 614.345L413.619 646.448L414.205 649.719L425.59 654.254L426.584 657.891L433.531 683.614L445.229 726.868L446.056 729.924L447.42 729.565L449.483 728.997L472.751 722.714L479.167 720.969L504.858 765.279L520.749 769.608L528.856 790.247L597.954 835.519Z" fill="#131320"/>
<path d="M311.229 435.007L264.679 411.805L205.905 380.746L205.072 380.643L201.406 381.565L168.435 365.574L136.424 345.596L74.3012 304.47L78.2264 298.697L144.307 334.648L155.847 341.228L150.187 337.282L98.1962 298.445L-1.91909 212.689L2.26898 207.998L108.439 283.946L163.369 321.56L190.365 339.605L195.458 342.999L195.786 318.747L172.93 299.066L145.229 274.662L91.012 227.671L-7.77174 140.958L-6.24548 133.518L61.468 179.036L47.1912 165.314L-2.75904 116.383L0.382757 101.062L0.351062 90.1766L0.339844 77.5664L24.1592 95.4065L24.2138 95.4613L81.3822 145.392L174.607 222.356L182.602 238.135L195.223 314.824L197.041 314.491L230.046 308.447L231.509 308.897L290.915 327.081L290.936 327.085L294.982 330.027L299.704 373.467L301.3 380.838L277.003 373.693L249.459 360.528L221.616 343.1L215.122 375.54L213.695 377.943L266.704 403.196L310.71 427.832L311.229 435.007ZM317.791 511.565L313.502 466.198L312.635 454.356L277.652 439.118L211.104 411.653L205.889 422.069L210.354 425.752L202.103 449.781L207.01 453.224L204.781 452.555L197.843 472.581L324.007 536.572L318.235 516.296L317.791 511.565ZM394.954 549.538L359.341 541.199L346.516 553.315L346.125 553.302L341.736 553.246L344.287 563.042L345.123 563.234L344.98 563.402L346.351 567.553L355.06 572.006L371.02 579.567L403.091 589.182L394.954 549.538ZM507.005 856.749L506.706 856.819L524.815 865.012L514.85 893.729L419.154 849.01L414.397 836.163L343.477 788.858L248.31 744.772L159.663 689.44L103.732 627.436L109.308 611.228L-12.8093 493.881L0.920595 473.717L3.52542 475.557L3.55495 475.52L3.77329 475.739L53.1747 515.584L74.4197 505.236L75.8069 505.845L72.6002 502.11L72.4308 498.618L64.7435 492.685L41.2777 468.766L43.1017 465.808L35.2769 461.205L49.6089 432.868L62.7163 438.517L38.2802 421.778L7.23451 398.865L-15.7951 373.655L-13.1528 369.68L18.0901 382.958L53.1463 403.573L123.355 440.972L259.711 516.698L265.041 531.04L255.361 551.957L299.546 569.756L360.119 599.165L402.726 611.019L407.81 614.345L413.62 646.449L407.89 645.991L389.916 645.793L382.168 644.489L372.305 648.886L292.298 626.383L215.337 596.397L78.3903 539.726L209.668 664.704L239.891 684.867L305.303 716.546L364.448 741.113L390.895 751.801L393.54 752.577L412.514 759.522L435.387 787.349L509.021 812.678L589.196 838.674L579.807 865.734L511.747 854.512L507.005 856.749ZM404.638 795.337L394.331 782.33L393.549 782.085L391.574 786.764L404.638 795.337ZM449.483 728.998L447.421 729.566L446.057 729.925L445.23 726.868L418.41 713.478L369.109 695.432L368.212 698.031L415.852 723.095L462.18 744.042L465.666 737.086L449.483 728.998Z" fill="#18182A"/>
<path d="M239.534 546.217L197.979 486.398L196.76 448.153L193.514 391.242L196.839 315.151L197.038 314.491L230.043 308.447L231.506 308.896L232.98 396.224L220.751 384.82L220.359 438.828L223.089 494.825L230.847 489.695L239.534 546.217Z" fill="url(#paint0_linear_1_319)"/>
</g>
<g clip-path="url(#clip2_1_319)">
<path d="M1598.79 33.6867L1614.87 141.839L1629.49 240.126L1656.93 424.724L1657.04 425.537L1728.28 904.582L758.872 1056.56L724.691 838.528L792.451 806.219L797.244 800.147L825.074 765.016L826.072 763.767L854.105 747.74L855.942 746.683L855.972 746.618L893.568 680.36L905.374 656.824L907.831 657.268L931.257 661.404L962.427 664.609L964.298 664.801L973.488 639.935L979.905 636.865L991.303 597.048L1000.01 558.643L1002.71 545.152L1004.86 545.34L1067.5 550.955L1069.76 551.167L1083.85 545.014L1084.59 544.696L1087.48 544.688L1108.69 544.639L1111.44 544.633L1112.64 519.746L1113.53 500.914L1124.65 484.018L1147.75 479.588L1181.33 473.777L1182.25 473.612L1213.45 474.912L1214.06 473.643L1233.64 432.501L1267.24 418.273L1287.84 356.52L1300.28 318.601L1309.56 284.234L1345.87 278.542L1368.36 241.962L1389.95 228.219L1430.95 201.846L1452.63 168.669L1481.62 120.916L1484.59 118.224L1495.4 108.418L1513.19 95.4339L1548.33 71.8596L1578.05 51.1178L1596.3 35.7754L1598.79 33.6867Z" fill="#131320"/>
<path d="M1614.88 141.839L1599.27 131.217L1509.95 179.164L1465.53 228.064L1418.92 268.548L1362.99 308.449L1331.91 396.422L1269.33 453.387L1223.34 481.697L1126.42 506.075L1112.64 519.745L1111.44 544.633L1108.69 544.639L1087.48 544.688L1063.83 568.139L1008.5 625.687L985.092 681.144L905.693 717.017L855.978 746.618L854.111 747.74L825.079 765.016L797.249 800.147L927.286 751.136L967.111 735.223L958.126 725.526L1083.19 615.131L1088.74 628.603L1152.72 599.678L1205.35 568.022L1201.9 550.095L1279.35 510.178L1289.27 467.902L1348.69 410.683L1510.93 334.938L1564.07 290.66L1629.5 240.126L1650.1 224.212L1693.46 195.345L1614.88 141.839ZM1521.55 497.777L1657.05 425.537L1665.93 420.805L1656.94 424.724L1635.03 434.248L1463.48 514.973L1410.03 541.275L1368.57 606.763L1309.83 612.896L1273.35 622.54L1166.62 683.939L1028.66 781.629L994.498 797.787L839.989 822.051L752.476 827.982L725.287 842.299L721.942 844.057L725.56 844.036L801.841 843.628L962.49 832.461L1006.28 825.455L1128.87 751.03L1248.58 726.316L1364.97 697.893L1556.28 638.285L1591.21 620.206L1599.69 603.321L1597.18 542.925L1449.44 600.052L1385.57 626.796L1438.43 543.599L1521.55 497.777ZM1478.88 437.609L1330.8 495.557L1306.08 522.13L1254.16 582.966L1115.52 640.67L1025.14 711.844L983.668 748.447L1012.1 734.603L1199.41 624.584L1255.57 602.023L1317.59 587.79L1327.63 571.55L1365.61 529.203L1451.3 462.869L1555.42 404.774L1478.88 437.609Z" fill="#18182A"/>
<path d="M1110.87 545.35L1110.51 563.309L1111.26 577.534L1110.7 612.376L1105.05 654.428L1097.37 636.939L1083.53 678.475L1066.32 757.599L1060.14 729.398L1054.5 673.378L1064.17 678.052L1047.68 590.435L1041.17 605.92L1026.22 576.221L1004.87 545.34L1067.51 550.954L1071.22 575.538L1081.41 621.599L1083.85 545.014L1084.59 544.696L1108.69 544.639L1110.87 545.35Z" fill="url(#paint1_linear_1_319)"/>
<path d="M1229.94 548.571L1230.86 576.14L1228.97 645.66L1218.2 606.203L1212.33 626.058L1193.1 637.205L1187.37 678.461L1170.04 681.481L1160.89 710.71L1154.82 742.47L1152.93 751.606L1152.39 709.554L1155.38 661.77L1174.13 643.294L1177.77 618.529L1182 603.867L1199.69 587.277L1197.99 564.119L1195.35 542.947L1189.59 511.445L1181.33 473.777L1182.26 473.612L1213.45 474.911L1214.06 473.642L1220.94 524.715L1229.94 548.571Z" fill="url(#paint2_linear_1_319)"/>
<path d="M1381.99 381.551L1379.44 426.556L1377.73 469.852L1372.26 444.108L1350.4 476.199L1343.29 468.899L1340.44 480.775L1328.93 517.415L1335.95 603.239L1326.72 578.468L1324.29 596.873L1314.25 640.585L1287.75 689.325L1278.49 712.604L1276.29 720.534L1290.52 663.178L1310.34 615.385L1308.3 571.423L1307.77 523.522L1313.11 468.775L1327.42 415.656L1323.65 391.647L1314.56 325.284L1310.89 284.026L1345.87 278.541L1354.41 319.583L1357.9 333.541L1365.85 367.654L1376.74 370.257L1381.99 381.551Z" fill="url(#paint3_linear_1_319)"/>
<path d="M1596.3 35.775L1580.16 117.078L1547.66 304.6L1520.09 405.234L1495.27 473.515L1483.49 486.386L1468.49 509.918L1448.92 542.925L1436.7 569.5L1438.16 532.596L1447.36 482.887L1473.49 467.259L1471.48 438.161L1468.75 413.282L1464.51 421.048L1452.48 392.327L1452.75 318.55L1451.56 235.595L1458.45 262.167L1465.21 288.639L1473.39 282.886L1486.35 260.382L1485.55 244.445L1486.51 186.663L1485.33 123.024L1484.6 118.223L1495.4 108.418L1513.19 95.4335L1548.33 71.8591L1578.06 51.1173L1596.3 35.775Z" fill="url(#paint4_linear_1_319)"/>
</g>
<path d="M1825.86 -75.2549L1814.55 18.9078L1814.27 84.628L1812.48 143.955L1811.31 189.899L1807.78 209.955L1807.72 210.309L1767.16 215.509L1644.72 218.137L1573.71 213.142L1536.19 206.507L1535.99 205.761L1531.44 189.378L1532.02 187.644L1543.62 153.423L1544.91 149.64L1546.87 143.825L1568.58 92.9781L1572.03 73.5566L1583.38 46.139L1605.37 -15.4619L1630.86 -95.9625L1632.43 -100.92L1732.99 -111.377L1790.09 -118.534L1818.19 -119L1825.86 -75.2549Z" fill="#171727"/>
<path d="M1823.56 209.973L1810.39 291.834L1794.08 364.432L1771.6 400.405L1738.97 405.661L1666.62 409.761L1612.29 405.624L1580.5 406.295L1515.93 399.436L1481.29 386.277L1481.7 383.201L1486.01 351.105L1486.49 347.508L1489.33 326.335L1502.91 263.69L1508.75 215.826L1511.49 210.83L1513.24 207.625L1538.06 205.071L1543.8 204.475L1588.47 208.202L1641.36 208.855L1704.12 213.645L1725.89 213.104L1782.39 207.83L1809.85 209.265L1823.56 209.973Z" fill="#171727"/>
<path d="M1809.76 766.88L1799.27 836.756L1792.65 839.701L1730.73 835.88L1673.99 843L1644.98 839.701L1552.58 817.801L1505.9 792.098L1442.56 791.967L1415.17 788.445L1399.2 786.394L1384.39 782.145L1323.94 775.919L1336.05 733.945L1348.73 695.549L1363.4 649.195L1378.25 606.512L1405.58 547.837L1410.93 536.337L1435.28 484.354L1444.93 447.692L1467.8 404.748L1476.36 392.372L1510.34 388.402L1533.53 385.699L1565.93 390.489L1617.37 391.421L1645.97 392.26L1689.76 391.421L1722.91 395.708L1769.8 400.927L1783.38 458.633L1794.98 590.725L1809.76 766.88Z" fill="#171727"/>
<path d="M1404.42 555.591L1403.47 570.819V589.849L1378.23 641.254L1359.18 723.581L1339.18 763.077L1314.4 764.512L1264.87 771.166L1233.42 764.978L1213.42 766.413L1195.32 764.568L1180.39 760.057L1160.08 777.839L1095.3 782.275L1062.89 777.839L1046.38 773.701L1045.41 769.563L1045.11 768.314L1077.18 741.027L1105.77 724.215L1124.52 714.374L1168.32 721.997L1168.36 721.96L1168.68 721.55L1194.68 687.404L1213.42 671.225H1213.55L1232.48 672.493L1234.39 670.275L1264.01 635.905L1269.31 629.009L1271.01 626.791L1295.36 595.086L1315.06 574.714L1342.99 545.6L1352.52 536.71L1387.72 544.892L1388.08 544.967L1404.42 555.591Z" fill="#171727"/>
<path d="M1168.64 722.314L1162.02 728.409L1146.74 733.106L1125.15 753.086L1108.43 760.206L1077.5 773.384L1062.59 772.769H1062.52L1062.26 772.75L1045.41 769.563L1045.11 768.314L1046.48 767.159L1075.97 742.052L1077.18 741.027L1105.77 724.215L1124.52 714.374L1168.32 721.997L1168.36 721.96L1168.64 722.314Z" fill="url(#paint5_linear_1_319)"/>
<path d="M1234.39 682.334L1217.56 707.72L1200.4 723.432L1187.08 735.641L1174.69 732.789L1171.53 726.899V726.88L1168.68 721.55L1169.76 720.133L1174.71 713.628L1178.79 708.279L1183.96 701.495L1194.69 687.404L1213.42 671.225H1213.55L1218.85 674.972L1234.39 682.334Z" fill="url(#paint6_linear_1_319)"/>
<path d="M1228.34 731.932L1224.53 741.027L1219.46 749.601L1217.52 752.751L1211.83 761.958L1198.06 760.188L1189.85 759.219L1183.45 757.038L1182.57 756.74L1181.01 753.068V753.049L1180.97 752.993L1180.39 751.633L1193.45 735.175L1203.36 727.44L1217.69 716.275L1228.02 719.257L1228.34 731.932Z" fill="url(#paint7_linear_1_319)"/>
<path d="M1234.38 682.334L1218.84 674.972L1213.41 671.225L1232.48 672.493L1249.94 682.334L1269.63 683.918L1248.99 686.453L1234.38 682.334Z" fill="url(#paint8_linear_1_319)"/>
<path d="M1124.52 714.374L1146.74 733.106L1162.02 728.409L1169.4 721.661L1124.52 714.374Z" fill="url(#paint9_linear_1_319)"/>
<path d="M1387.72 544.892L1384.25 551.621L1378.24 558.293L1370.58 569.943L1362.74 578.405L1361.47 579.784L1361.64 578.162L1362.35 571.154L1362.67 562.729L1355 576.708L1354.4 577.789L1346.27 594.397L1345.97 594.993L1343.47 599.448L1339.7 606.139L1335.37 613.818L1331.81 618.515L1329.29 621.814L1307.33 650.704L1289.12 670.629L1295.35 657.917L1296.94 655.55L1301.04 649.474L1307.11 640.453L1298.9 647.946L1293.73 652.698L1288.58 657.395L1275.67 670.908L1252.48 679.165L1234.38 670.275L1264.01 635.905L1268.41 630.164L1269.31 629.009L1270.41 627.573L1271.01 626.791L1285.5 616L1294.35 596.391L1295.35 595.086L1312.16 577.696L1315.05 574.714L1316.64 573.055L1320.41 569.122L1342.98 545.6L1352.52 536.71L1387.72 544.892Z" fill="url(#paint10_linear_1_319)"/>
<path d="M1090.37 749.545L1075.97 742.052L1046.47 767.159L1047.72 767.475L1062.52 772.769H1062.59L1077.5 773.384L1108.43 760.206L1090.37 749.545ZM1183.95 701.494L1178.79 708.279L1186.42 730.366L1185.69 730.552L1174.7 713.628L1169.76 720.133L1171.53 726.88V726.899L1174.68 732.789L1187.07 735.641L1200.39 723.432L1183.95 701.494ZM1215.93 747.197L1203.36 727.44L1193.45 735.175L1180.39 751.633L1180.97 752.993L1181.01 753.049V753.068L1183.45 757.038L1189.85 759.218L1198.06 760.188L1211.83 761.958L1217.52 752.751L1215.93 747.197ZM1301.04 649.474L1296.94 655.55L1298.79 657.19L1303.43 651.189L1301.04 649.474ZM1270.41 627.573L1269.31 629.008L1268.41 630.164L1293.73 652.698L1298.9 647.945L1270.41 627.573ZM1361.64 578.162L1361.47 579.784L1362.74 578.404L1361.64 578.162ZM1320.41 569.122L1316.64 573.055L1327.29 577.901L1312.16 577.696L1295.35 595.086L1294.35 596.391L1322.8 603.79L1339.7 606.139L1343.47 599.447L1345.97 594.993L1346.27 594.396L1354.4 577.789L1355 576.708L1320.41 569.122Z" fill="#372E48"/>
<path d="M1573.06 416.155L1553.6 431.55L1547.69 439.248L1538.77 450.897L1523.68 468.045L1508.58 485.192L1497.31 497.923L1497.2 498.035L1478.26 519.432L1467.31 529.888L1476.44 502.582L1483.04 482.788L1484.1 476.19L1484.7 472.35L1487.5 454.83L1488.75 447.02L1490.19 438.055L1489.93 432.352L1489.22 417.105L1482.09 427.58L1479.83 431.811L1473.47 443.777L1472.57 445.641L1466.57 458.055L1459.68 472.313L1451.38 501.613L1450.19 504.894L1442.54 526.086L1415.88 548.937L1405.58 547.837L1410.93 536.337L1432.61 490.039L1435.28 484.354L1441.18 461.969L1444.93 447.691L1447.15 443.498L1454.03 430.6L1467.8 404.748L1476.36 392.372L1510.34 388.402L1518.75 390.471L1511.6 416.155L1527.82 395.689L1546.31 398.056L1569.25 400.461L1573.06 416.155Z" fill="url(#paint11_linear_1_319)"/>
<path d="M1359.18 713.591L1365.84 716.909L1353.45 725.296L1353.41 725.315L1346.99 729.826L1338.23 735.958L1327.41 748.725V748.744L1306.77 773.067L1298.21 772.117L1309.61 743.618L1310.6 741.177L1309.2 743.506L1295.82 765.929L1287.7 780.802L1287.26 781.641L1286.77 781.567L1269.63 779.255L1270.58 768.78L1260.89 781.063L1258.19 784.493L1230.09 773.067L1229.27 763.282L1229.14 761.642L1239.46 748.632L1241.51 746.153L1242.13 745.408L1256.3 728.316L1270.09 711.671L1288.67 708.988L1310.11 694.841L1312.01 693.592L1314.42 691.299L1323.45 682.651H1330.6L1342.63 675.382L1354.42 671.225L1363.94 679.426L1371.08 686.938L1359.18 713.591Z" fill="url(#paint12_linear_1_319)"/>
<path d="M1497.87 617.024L1494.36 627.369L1495.31 641.218L1495.43 659.018L1495.5 670.611L1490.13 700.768L1489.87 702.241L1480.5 726.657L1480.22 713.871L1467.83 726.564L1440.15 754.932L1439.34 755.752L1425.41 760.449L1421.47 762.947L1413.13 768.259L1412.55 762.63L1368.95 768.781L1371.19 750.888L1372.12 745.967L1373.09 740.879L1376.25 724.253L1380.2 719.332L1387.91 709.771L1406.29 689.697L1424.85 669.399L1438.69 649.325L1451.84 630.258L1458.73 620.789L1458.79 620.696L1477.35 594.882L1498.6 579.859L1498.65 579.877L1504.53 597.361L1497.87 617.024Z" fill="url(#paint13_linear_1_319)"/>
<path d="M1448.73 598.889L1438.73 623.175L1437.2 625.859L1427.37 643.211L1416.34 662.67L1411.34 667.665L1397.28 681.7L1384.03 664.665L1386.9 653.146L1387.84 649.437L1390.21 646.343L1400.23 633.258L1405.43 625.318L1415.92 609.345L1418.42 605.524L1437.24 593.167L1448.73 598.889Z" fill="url(#paint14_linear_1_319)"/>
<path d="M1580.15 739.946L1576.83 746.377L1575.32 752.36L1570.13 772.918L1566.12 790.681L1564.05 799.889L1549.5 806.915L1539.57 799.031L1532.3 800.41L1507.45 787.643L1523.53 752.789L1524.87 751.092L1540.95 730.683L1546.48 723.675L1573.66 724.215L1580.15 739.946Z" fill="url(#paint15_linear_1_319)"/>
<path d="M1437.2 625.859L1427.37 643.212L1420.71 639.447L1410.09 629.866L1405.43 625.318L1415.91 609.345L1424.16 614.843L1437.2 625.859ZM1494.36 627.369L1497.87 617.024L1488.66 617.49L1458.79 620.696L1458.73 620.789L1451.85 630.258L1438.69 649.325L1440.11 650.574L1442.98 653.183L1453.67 653.798L1463.15 655.42L1495.43 659.017L1495.32 641.217L1494.36 627.369ZM1390.2 646.343L1387.83 649.437L1386.9 653.146L1411.34 667.666L1416.3 662.708L1390.2 646.343ZM1406.29 689.697L1387.91 709.77L1380.2 719.332L1380.19 719.5L1467.83 726.564L1480.22 713.871L1480.5 726.657L1489.87 702.24L1490.13 700.768L1406.29 689.697ZM1414.63 748.166L1391.04 742.947L1373.1 740.878L1372.13 745.967L1387.87 754.447L1412.57 762.071L1421.47 762.947L1425.41 760.449L1439.35 755.752L1440.15 754.932L1414.63 748.166ZM1540.95 730.683L1524.87 751.092L1544.74 772.452L1566.12 790.681L1570.13 772.918L1575.32 752.36L1540.95 730.683ZM1256.3 728.316L1242.13 745.408L1243.36 746.097L1241.51 746.153L1239.46 748.632L1229.14 761.642L1229.27 763.282L1250.45 777.317L1260.89 781.064L1270.58 768.781L1269.63 779.256L1286.77 781.567L1287.69 780.803H1287.7L1295.82 765.929L1309.2 743.507L1256.3 728.316ZM1309.61 743.618L1298.21 772.117L1306.77 773.067L1327.41 748.744V748.725L1309.61 743.618ZM1330.15 702.669L1314.42 691.299L1312.01 693.592L1310.11 694.841L1321.98 710.852L1346.99 729.826L1353.41 725.315L1353.45 725.297L1330.15 702.669Z" fill="#372E48"/>
<path d="M1604.2 234.912L1587.53 276.979L1564.77 280.614L1560.02 281.378L1548.08 310.66L1547.72 311.573L1542.59 324.135L1541.12 327.751L1515.89 381.039L1481.7 383.201L1489.33 326.335L1493.52 306.95L1499.53 279.309L1502.61 265.051L1502.91 263.69L1504.38 251.556L1508.75 215.826L1511.49 210.831L1563.11 216.236L1556.12 264.827L1565.5 267.641L1585.93 232.004L1604.2 234.912Z" fill="url(#paint16_linear_1_319)"/>
<path d="M1564.07 329C1550.11 333.548 1534.93 335.039 1520.75 339.196C1519.27 339.624 1517.82 340.109 1516.34 340.556C1525.69 341.712 1535.3 343.166 1543.81 346.446C1545.19 346.968 1545.15 349.41 1543.43 349.242C1531.81 348.012 1520.3 344.75 1508.69 342.942C1501.05 345.458 1493.49 348.161 1486.01 351.106L1486.49 347.508C1492.97 344.713 1499.52 342.141 1506.16 339.811C1506.44 339.55 1506.79 339.382 1507.24 339.438C1511.36 338.021 1515.52 336.679 1519.72 335.468C1533.55 331.461 1549.24 326.353 1563.73 326.428C1565.24 326.447 1565.45 328.553 1564.07 329Z" fill="#171727"/>
<path d="M1688.81 -46.4022L1668.79 18.3114L1680.22 23.0829L1680.11 23.3252L1668.68 47.7046L1652.67 81.7762L1645.93 96.1467L1636.12 114.599L1615.45 153.479V103.024L1606.88 121.7L1592.22 153.722L1574.48 187.737L1534.09 186.954L1548.94 143.135L1553.06 133.48L1570.65 92.2884L1570.88 91.0396L1572.13 83.9383L1574.1 72.8669L1578 63.4543L1578.79 61.5532L1582.43 52.7371L1585.45 45.4493L1607.44 -16.1516L1632.93 -96.6522L1633.79 -96.8945L1673.36 -93.7259L1702.13 -94.9375L1688.81 -46.4022Z" fill="url(#paint17_linear_1_319)"/>
<path d="M1603.84 148.335C1596.21 143.713 1582.28 146.49 1573.73 146.583C1563.83 146.676 1553.9 146.546 1545.69 152.734L1546.98 148.95C1554.63 145.204 1563.34 145.111 1571.9 144.943C1579.81 144.775 1587.84 144.29 1595.75 144.496C1599.31 144.589 1601.85 144.682 1604.74 146.825C1605.62 147.478 1604.83 148.932 1603.84 148.335Z" fill="#171727"/>
<path d="M1344.21 745.482C1329.14 740.729 1313.37 736.349 1297.63 734.504C1291.12 733.74 1285.82 734.392 1279.49 735.753C1269.01 738.008 1259.74 737.337 1250.11 732.379C1249.87 732.249 1249.64 732.622 1249.89 732.752C1255.09 735.622 1260.54 737.598 1266.51 738.101C1273.75 738.717 1280.33 736.349 1287.46 735.828C1287.81 735.809 1288.19 735.79 1288.54 735.772C1288.58 735.846 1288.62 735.902 1288.71 735.902C1294.87 736.666 1300.41 742.966 1304.46 747.365C1308.17 751.391 1310.86 755.808 1314.06 760.17C1318.13 765.668 1323.13 769.75 1329.2 772.863C1331.58 774.093 1333.69 770.44 1331.28 769.284C1320.78 764.214 1316.36 755.212 1308.6 747.328C1303.92 742.575 1298.23 736.815 1291.42 735.678C1308.6 735.548 1327.78 742.277 1343.69 747.365C1344.9 747.775 1345.43 745.874 1344.21 745.482Z" fill="#171727"/>
<path d="M1500.17 689.752C1483.54 694.785 1466.02 694.077 1448.84 694.412C1445.69 694.468 1442.54 694.561 1439.4 694.617C1438.86 694.207 1438.1 694.077 1437.22 694.487C1437.09 694.542 1436.96 694.617 1436.81 694.673C1423.43 694.971 1410.05 695.307 1396.68 695.661C1395.28 695.698 1395.26 697.842 1396.68 697.842C1407.87 697.804 1419.07 697.767 1430.26 697.73C1415.75 704.309 1399.53 710.329 1383.92 709.304C1383.43 709.267 1383.32 710.05 1383.8 710.162C1403.06 714.467 1420.88 703.564 1438.82 698.289C1439.27 698.158 1439.59 697.935 1439.81 697.674C1444.07 697.655 1448.32 697.636 1452.57 697.599C1468.86 697.45 1485.58 698.457 1501.51 694.598C1504.64 693.834 1503.28 688.802 1500.17 689.752Z" fill="#171727"/>
<path d="M1371.6 594.658C1365.02 596.056 1358.28 595.646 1351.64 597.137C1348.88 597.752 1346.16 598.535 1343.47 599.448C1338.75 600.995 1334.16 602.915 1329.66 605.021C1320.75 609.196 1312.09 615.328 1302.87 619.224C1303.38 619.168 1303.88 619.093 1304.4 619.037C1312.72 618.217 1322.42 617.751 1331.81 618.515C1338.95 619.093 1345.93 620.398 1351.96 622.821C1354.07 623.678 1353.25 626.511 1351.02 626.195C1343.62 625.169 1336.73 622.802 1329.29 621.814C1328.64 621.721 1327.98 621.647 1327.31 621.572C1320.78 620.957 1314.22 620.808 1307.67 621.162C1294.48 621.852 1281.64 624.554 1269.31 629.009L1271.01 626.791C1279.48 623.678 1288.19 621.386 1297.11 619.988C1307.76 611.526 1321.83 604.723 1334.14 599.262C1337.8 597.621 1341.94 595.869 1346.27 594.397C1354.66 591.545 1363.79 589.775 1371.6 592.123C1372.78 592.477 1372.91 594.378 1371.6 594.658Z" fill="#171727"/>
<path d="M1238.06 666.638C1245.15 657.319 1252.72 648.395 1260.41 639.608C1264.26 635.206 1268.16 630.856 1272.2 626.649L1284.47 614.107L1284.38 614.215C1287.89 608.95 1291.23 603.594 1294.47 598.17C1297.7 592.741 1300.78 587.21 1303.89 581.707L1303.94 581.623L1304.06 581.485C1306.8 578.48 1309.6 575.551 1312.38 572.616C1315.15 569.658 1318 566.763 1320.81 563.857C1326.44 558.027 1332.09 552.203 1337.89 546.522L1337.99 546.437L1338.07 546.381C1342.02 543.297 1345.99 540.236 1350.01 537.227L1350.66 536.744L1351.37 536.902L1359.75 538.664C1362.54 539.238 1365.32 539.906 1368.1 540.515C1370.88 541.166 1373.67 541.739 1376.45 542.426C1379.22 543.112 1381.99 543.739 1384.78 544.466L1384.7 544.834C1381.86 544.556 1379.03 544.184 1376.19 543.848C1373.34 543.529 1370.53 543.086 1367.7 542.714C1364.88 542.324 1362.04 541.969 1359.23 541.526L1350.77 540.244L1352.14 539.9C1348.3 543.117 1344.41 546.3 1340.5 549.459L1340.67 549.313C1335 555.132 1329.21 560.795 1323.38 566.43C1320.46 569.244 1317.59 572.111 1314.63 574.897C1311.7 577.688 1308.78 580.503 1305.78 583.254L1305.96 583.037C1302.46 588.303 1298.9 593.535 1295.51 598.856C1292.12 604.195 1288.84 609.59 1285.73 615.093L1285.72 615.129L1285.66 615.207L1274.48 628.722C1270.7 633.187 1266.8 637.514 1262.83 641.802C1254.9 650.382 1246.82 658.819 1238.34 666.919L1238.06 666.638Z" fill="#D5BF9A"/>
<path d="M1535.78 469.461C1514.16 467.057 1488.02 477.998 1470.32 489.591C1468.75 490.616 1470.11 492.778 1471.75 492.052C1482.37 487.317 1493.38 483.03 1504.66 480.197C1515.17 477.569 1526.06 477.476 1536.53 475.053C1539.89 474.27 1538.75 469.797 1535.78 469.461Z" fill="#171727"/>
<path d="M1567.56 245.051C1567.35 244.101 1566.51 243.374 1565.62 243.113C1563.71 242.554 1562.37 244.492 1560.84 245.219C1560.54 245.368 1560.23 245.443 1559.93 245.499C1560.23 245.145 1560.49 244.735 1560.6 244.287C1560.75 243.784 1560.75 243.15 1560.6 242.647C1560.47 242.181 1560.21 241.734 1559.87 241.38C1560.47 240.839 1561.07 240.317 1561.74 239.851C1562.43 239.367 1562.32 237.875 1561.23 238.025C1557.04 238.584 1553.23 239.963 1550.17 242.964C1548.98 244.138 1548.99 246.17 1550.17 247.344C1553.1 250.289 1556.57 253.234 1561.01 252.88C1565.24 252.544 1568.49 249.394 1567.56 245.051Z" fill="#171727"/>
<path d="M1680.11 23.3252L1668.68 47.7046L1654.39 54.7501L1600.64 72.7923L1572.13 83.9383L1574.11 72.8669L1578.01 63.4543L1587.93 58.9438L1624.46 46.2881L1578.79 61.5532L1582.43 52.7371L1680.11 23.3252Z" fill="#372E48"/>
<path d="M1564.77 280.614L1560.02 281.379L1548.08 310.66H1546.62L1547.72 311.573L1542.59 324.136L1532.27 322.738L1509.49 313.754L1493.52 306.951L1499.53 279.31L1530.63 283.951L1539.72 286.858L1528.26 280.503L1502.61 265.051L1502.91 263.69L1504.38 251.557L1544.89 270.214L1564.77 280.614Z" fill="#372E48"/>
<path d="M1441.17 461.969L1466.56 458.055L1459.68 472.313L1451.38 501.613L1450.18 504.894L1446.36 505.117L1443.39 494.139L1451.77 490.281L1432.61 490.039L1435.28 484.354L1441.17 461.969Z" fill="#372E48"/>
<path d="M1479.83 431.811L1473.47 443.777L1472.57 445.641L1447.14 443.498L1454.03 430.6L1461.81 430.861L1479.83 431.811Z" fill="#372E48"/>
<path d="M1484.11 476.19L1497.31 479.228V498.016L1497.2 498.035L1476.44 502.582L1483.04 482.788L1484.11 476.19Z" fill="#372E48"/>
<path d="M1547.69 439.248L1538.77 450.898L1523.68 468.045L1484.7 472.351L1487.5 454.83L1523.83 449.239L1493.68 447.431L1488.75 447.021L1490.19 438.055L1489.93 432.352L1499.24 432.837L1547.69 439.248Z" fill="#372E48"/>
<path d="M1045 768.165C1047.48 765.668 1050.07 763.3 1052.61 760.859C1055.17 758.454 1057.74 756.069 1060.35 753.72C1065.54 748.986 1070.82 744.364 1076.12 739.778L1076.21 739.704L1076.34 739.629C1080.22 737.281 1084.14 734.988 1088.1 732.789C1092.05 730.571 1096.06 728.465 1100.04 726.303C1102.03 725.24 1104.01 724.122 1106.04 723.115C1108.1 722.146 1110.13 721.14 1112.16 720.133C1116.23 718.12 1120.24 716.014 1124.23 713.871L1124.4 713.777L1124.61 713.815C1131.92 715.026 1139.27 716.014 1146.6 717.039C1153.96 718.027 1161.29 719.164 1168.6 720.301L1167.07 720.786L1167.11 720.748L1166.96 720.916L1173.41 712.193C1175.58 709.285 1177.71 706.359 1179.91 703.489C1182.11 700.618 1184.25 697.711 1186.51 694.859L1193.19 686.304L1193.32 686.136L1193.45 686.024C1199.79 680.75 1206.16 675.493 1212.63 670.368L1213.02 670.051L1213.38 670.088L1218.19 670.592C1219.78 670.759 1221.36 670.927 1222.95 671.132C1226.12 671.523 1229.29 671.878 1232.46 672.306L1232.44 672.679C1229.25 672.698 1226.06 672.623 1222.89 672.586C1221.31 672.567 1219.7 672.53 1218.12 672.474L1213.4 672.344L1214.14 672.064C1208.13 677.73 1202 683.247 1195.86 688.764L1196.12 688.485L1189.65 697.208C1187.5 700.134 1185.28 702.986 1183.08 705.856C1180.9 708.745 1178.64 711.578 1176.42 714.43L1169.72 722.985L1169.65 723.078L1169.57 723.153L1169.53 723.19L1168.86 723.842L1168 723.675C1160.73 722.295 1153.45 720.879 1146.19 719.313C1138.94 717.803 1131.68 716.256 1124.38 714.914L1124.76 714.858C1120.73 716.927 1116.73 719.033 1112.76 721.233C1110.78 722.333 1108.81 723.432 1106.85 724.569C1104.91 725.725 1103.02 726.992 1101.1 728.204C1097.28 730.627 1093.49 733.106 1089.63 735.492C1085.78 737.877 1081.88 740.17 1077.97 742.425L1078.19 742.257C1072.82 746.768 1067.39 751.223 1061.88 755.603C1059.14 757.802 1056.38 759.964 1053.6 762.108C1050.78 764.214 1048.02 766.394 1045.17 768.445L1045 768.165Z" fill="#D5BF9A"/>
<path d="M1481.84 384.823C1482.12 380.033 1482.52 375.261 1482.94 370.509C1483.37 365.737 1483.88 360.984 1484.4 356.231C1485.46 346.726 1486.62 337.238 1488.13 327.789L1488.15 327.695V327.677C1490.72 317.314 1493.6 306.988 1495.87 296.569C1498.21 286.15 1500.05 275.619 1501.96 265.088L1501.94 265.2C1502.27 261.192 1502.7 257.204 1503.09 253.196C1503.47 249.189 1503.95 245.2 1504.36 241.212C1505.22 233.216 1506.1 225.238 1507.09 217.261L1507.14 216.87L1507.33 216.553L1510.13 211.576L1510.76 210.439L1512.03 210.588C1520.63 211.558 1529.21 212.695 1537.78 213.831C1546.34 215.062 1554.92 216.273 1563.47 217.746L1563.43 218.118C1554.77 217.783 1546.13 217.186 1537.5 216.609C1528.88 215.956 1520.24 215.267 1511.64 214.428L1513.54 213.44L1510.85 218.473L1511.08 217.764C1510.13 225.742 1509.06 233.7 1507.96 241.678C1507.4 245.666 1506.92 249.636 1506.32 253.625C1505.72 257.595 1505.2 261.584 1504.55 265.554L1504.53 265.666C1501.9 276.029 1499.21 286.373 1497.03 296.83C1494.79 307.267 1493.13 317.854 1491.19 328.348L1491.21 328.236C1490.16 337.742 1488.77 347.21 1487.29 356.66C1486.55 361.394 1485.78 366.11 1484.94 370.807C1484.1 375.522 1483.21 380.219 1482.22 384.916L1481.84 384.823Z" fill="#D5BF9A"/>
<path d="M1405.41 547.744C1409.5 536.765 1414.14 526.029 1418.95 515.387C1421.36 510.056 1423.82 504.763 1426.47 499.563L1434.57 483.999L1434.51 484.13C1436.34 478.072 1437.98 471.977 1439.51 465.845C1441.03 459.713 1442.37 453.525 1443.75 447.355L1443.77 447.262L1443.84 447.095C1445.6 443.423 1447.43 439.807 1449.23 436.191C1451.03 432.556 1452.91 428.959 1454.76 425.362C1458.45 418.149 1462.16 410.935 1466.06 403.815L1466.14 403.704L1466.19 403.629C1469.09 399.529 1472 395.447 1474.96 391.402L1475.45 390.75L1476.18 390.694L1484.7 389.948C1487.54 389.687 1490.39 389.52 1493.23 389.296C1496.08 389.109 1498.92 388.849 1501.77 388.699C1504.63 388.55 1507.46 388.345 1510.34 388.234L1510.37 388.606C1507.57 389.165 1504.76 389.631 1501.94 390.135C1499.12 390.657 1496.31 391.048 1493.49 391.514C1490.67 391.961 1487.85 392.446 1485.04 392.837L1476.57 394.067L1477.78 393.341C1475.04 397.534 1472.24 401.709 1469.42 405.866L1469.53 405.679C1465.8 412.893 1461.9 419.994 1457.97 427.077C1455.99 430.618 1454.07 434.197 1452.05 437.719C1450.06 441.242 1448.08 444.783 1446.01 448.287L1446.12 448.026C1444.29 454.084 1442.41 460.123 1440.71 466.199C1439.01 472.294 1437.44 478.408 1436.06 484.577V484.614L1436.03 484.707L1429.25 500.886C1426.94 506.254 1424.46 511.529 1421.9 516.785C1416.81 527.297 1411.53 537.716 1405.76 547.93L1405.41 547.744Z" fill="#D5BF9A"/>
<path d="M1533.92 186.898C1536.01 179.461 1538.17 172.062 1540.49 164.7L1543.9 153.647L1547.44 142.631L1547.46 142.594L1547.5 142.519C1551.06 134.02 1554.57 125.502 1558.36 117.096C1560.22 112.884 1562.2 108.709 1564.1 104.515L1569.91 91.9527L1569.85 92.139C1571.19 85.6901 1572.41 79.2411 1573.54 72.7548L1573.56 72.6989L1573.58 72.643C1579.22 58.7944 1584.85 44.9458 1589.24 30.6126C1593.97 16.4286 1598.92 2.33772 1603.79 -11.7904L1605.65 -17.0652L1607.33 -22.4145L1610.78 -33.0758C1613.06 -40.1958 1615.5 -47.2599 1617.87 -54.3613C1620.22 -61.4626 1622.67 -68.5267 1625.15 -75.5907C1627.59 -82.6548 1630.15 -89.7003 1632.74 -96.7271L1633.1 -96.6152C1631.18 -89.3834 1629.22 -82.1516 1627.15 -74.957C1625.11 -67.7439 1623.04 -60.5493 1620.88 -53.392C1618.73 -46.2161 1616.64 -39.0216 1614.42 -31.883L1611.1 -21.1657L1609.4 -15.8164L1607.52 -10.523C1602.33 3.53059 1597.22 17.6028 1591.88 31.6005C1586.81 45.6914 1580.3 59.2231 1574.61 73.053L1574.65 72.9412C1573.49 79.4088 1572.41 85.8951 1571.44 92.4L1571.42 92.4745L1571.38 92.5864L1566.32 105.447C1564.63 109.734 1562.97 114.04 1561.21 118.289C1557.76 126.844 1554.05 135.269 1550.35 143.712L1550.39 143.601L1546.51 154.504L1542.5 165.352C1539.85 172.602 1537.09 179.797 1534.22 186.973L1533.92 186.898Z" fill="#D5BF9A"/>
<path d="M128 709.253V739.462L83.3557 751.911L-6.38261 751.869L-32 241L-28.3243 243.112L30.8675 276.954L68.0613 299.657L76.7366 322.753L82.722 367.819L83.1726 371.157L84.088 371.791L104.959 386.381L106.607 446.826L109.114 489.076L109.241 491.343L109.776 500.329L116.296 610.333L124.31 658.089L128 709.253Z" fill="#121223"/>
<path d="M83.4666 371.438L81.9738 370.664L72.5803 365.819L53.4552 357.496L37.3159 347.779L21.7539 338.399L17.0501 335.583L15.515 321.006L13.7546 304.557L39.6537 307.092L24.6128 298.135L19.5006 295.093L-27.3403 267.758L-27.5938 246.731L31.6121 280.573L68.7919 303.276L70.2706 307.205L77.4812 326.372L80.4105 348.581L83.3821 370.762L83.4666 371.438Z" fill="url(#paint18_linear_1_319)"/>
<path d="M110.509 503.948L104.58 545.775L92.7502 519.524L86.5535 491.4L87.1732 485.795L88.2154 476.641L84.3847 465.092L77.1459 443.123L75.456 427.406L74.8785 422.11L73.104 405.788L76.1038 396.93L76.6953 395.211L70.4705 395.282L54.4297 375.086L84.8213 375.41L105.707 390.001L106.721 427.955L106.876 432.785L106.89 434.039L107.34 450.446L108.552 470.599L109.875 493.146L110.509 503.948Z" fill="url(#paint19_linear_1_319)"/>
<path d="M83.3827 370.763L81.9744 370.665L79.7492 370.524L54.4417 359.666L37.3165 347.78L31.6832 343.864L26.1907 340.837L22.4868 338.766L21.7545 338.4L17.0507 335.583L15.5156 321.007L27.078 325.936L80.4111 348.582L83.3827 370.763Z" fill="#171727"/>
<path d="M106.872 432.785L86.381 431.532L75.4524 427.406L74.875 422.11L87.0992 423.899L106.717 427.955L106.872 432.785Z" fill="#171727"/>
<path d="M109.873 493.147L91.5089 487.527L87.1713 485.795L88.2135 476.641L84.3828 465.093L108.55 470.599L109.873 493.147Z" fill="#171727"/>
<path d="M337.318 779.528L308.602 790.781H308.574L287.182 799.146L277.493 801.217L269.747 802.864L241.58 808.878L235.215 809.526L205.457 812.568L189.627 811.906L165.686 810.314L136.111 806.625L142.449 799.85L96.1569 796.992L78.7782 794.161L65.9766 790.753L68.4411 783.725L78.9472 747.954L86.5381 716.788L98.0722 693.747L93.8614 684.621L93.4107 656.244L93.1009 630.528L94.5373 616.501L107.508 547.211L123.38 511.074L134.604 493.188L137.773 488.118L137.871 487.977L150.518 484.02L158.109 481.415L175.079 486.696L197.612 494.442L216.118 498.624L233.482 503.229L242.186 562.787L245.27 581.222L247.622 595.193L247.833 612.008L247.876 614.417L248.298 646.343L252.903 677.664L253.382 680.875L248.425 689.41L243.904 696.508L245.594 696.916L248.354 697.578L257.931 699.888L267.874 707.549L287.759 723.224L296.153 731.941L299.279 741.461V741.475L299.561 742.349L299.646 742.616L301.561 744.771L302.814 746.179L307.293 751.193L308.912 752.742L308.926 752.756L318.517 761.798L337.318 779.528Z" fill="url(#paint20_linear_1_319)"/>
<path d="M252.904 677.664L248.256 686.086L243.243 692.424L229.385 690.058L210.851 677.073L209.598 666.623L208.922 661.229L208.288 655.948L204.767 621.613L207.176 608.023L207.373 607.023L207.345 606.995V606.981L205.134 601.08L203.345 596.235L202.739 575.448L202.134 554.845L202.824 531.987L202.852 531.283L202.951 527.96L203.429 512.482L188.403 510.75L188.149 512.722L186.375 526.256L185.304 539.494L185.741 544.015L186.121 548.169L187.389 561.605L188.163 577.786L194.289 617.501L192.98 632.57L189.36 652.836L185.685 621.81L183.84 600.136L182.178 567.266L177.657 546.944L176.714 542.761L174.488 532.748L170.644 518.468L174.517 511.37L173.939 511.102L165.602 507.229L154.448 499.314L137.773 488.118L137.872 487.977L150.519 484.02L158.11 481.415L175.08 486.696L197.613 494.442L216.118 498.624L233.483 503.23L238.99 540.86L239.44 544L242.186 562.788L245.271 581.222L245.426 582.082L247.623 595.193L247.834 612.008L247.876 614.417L247.89 616.29L248.299 646.343L250.707 662.638L251.918 670.876L252.904 677.664Z" fill="url(#paint21_linear_1_319)"/>
<path d="M186.122 548.17L177.658 546.944L176.715 542.762L185.742 544.015L186.122 548.17Z" fill="#171727"/>
<path d="M248.594 616.289L225.878 613.008L206.795 606.713V606.699L204.528 600.615L202.669 595.615L202.035 574.194L246.031 581.025L248.299 594.545L248.538 611.867L248.566 614.36L248.594 616.289Z" fill="#171727"/>
<path d="M251.918 670.877L227.667 670.539L209.598 666.624L208.922 661.23L227.667 660.667L250.707 662.638L251.918 670.877Z" fill="#171727"/>
<path d="M239.877 541.776L202.176 528.678L202.274 525.256L239.398 538.55L239.877 541.776Z" fill="#171727"/>
<path d="M215.022 710.549L198.136 713.901L188.531 709.112L192.038 694.902L202.192 687.044L212.261 691.973L224.908 705.859L215.022 710.549Z" fill="url(#paint22_linear_1_319)"/>
<path d="M299.562 742.349L297.422 744.644L280.114 746.94L267.199 729.688L267.016 729.435L264.96 729.505L252.44 729.928L250.102 740.194L237.413 731.153L213.415 730.73L197.121 725.562L198.515 724.477L218.316 718.647L221.048 717.844L233.822 706.817L238.371 702.395L241.399 699.437L245.596 696.916L248.356 697.578L257.932 699.888L267.875 707.549L287.761 723.224L296.154 731.941L299.281 741.462V741.476L299.562 742.349Z" fill="url(#paint23_linear_1_319)"/>
<path d="M204.908 809.427L195.768 820.074L175.488 831.791L135.914 847.029L86.6792 845.875L57.4002 847.029H20.5L-11 845.875L-3.24219 759.643L11.165 722.365L30.8533 697.634L57.4002 683.678L100.593 682.579L101.086 682.565H101.34L148.744 724.759L183.347 769.839L195.993 787.049L203.274 805.357L204.908 809.427Z" fill="url(#paint24_linear_1_319)"/>
<path d="M203.275 805.357L189.065 817.356L134.718 834.523L133.62 830.721L129.803 817.708L128.296 812.554L125.522 802.977L133.592 803.554L131.634 800.076L130.324 797.724L123.691 785.936L119.382 778.247L98.7637 752.475L97.0315 765.685L66.6962 737.631L65.7808 735.969L63.612 732.04L55.6409 717.506L53.3594 713.365L60.2179 705.084L65.992 698.085L78.8923 690.044L100.609 682.594L100.623 682.579L101.341 682.565L148.759 724.759L151.393 728.195L163.406 743.87L183.348 769.853L192.065 781.697L195.994 787.049L201.585 801.076L203.275 805.357Z" fill="url(#paint25_linear_1_319)"/>
<path d="M163.406 743.87L160.899 743.32L125.804 739.053L65.7808 735.969L63.612 732.04L129.944 731.35L142.379 732.152L55.6409 717.506L53.3594 713.365L60.2179 705.084L151.393 728.195L163.406 743.87Z" fill="#171727"/>
<path d="M201.582 801.076L167.444 819.398L133.616 830.721L129.8 817.708L149.558 812.216L128.293 812.554L125.518 802.977L133.588 803.554L131.63 800.076L140.672 799.583L130.321 797.724L123.688 785.936L192.062 781.697L195.991 787.049L201.582 801.076Z" fill="#171727"/>
<path d="M76.3419 748.729C86.9466 754.573 97.4245 753.658 109.283 753.179C119.394 752.77 129.76 751.869 139.871 752.616C145.871 753.066 151.589 754.855 157.616 754.981C162.757 755.094 167.503 754.714 172.629 755.038C172.699 755.531 172.925 755.897 173.15 756.277C170.981 758.347 168.489 757.347 165.714 757.39C156.011 757.559 145.984 759.136 136.266 759.756C131.59 760.051 125.718 759.375 121.324 760.573C112.874 762.896 104.551 769.501 96.8471 773.501C101.819 764.91 114.353 765.417 120.732 758.305C120.028 757.671 119.38 757.615 118.592 757.193C116.099 755.855 105.41 757.7 103.692 757.7C97.326 757.714 90.904 756.995 84.5947 756.207C73.5816 754.827 75.4125 753.883 76.3419 748.729Z" fill="#171727"/>
<path d="M247.875 614.417C236.284 615.304 223.919 611.84 212.765 609.262C211.456 608.953 208.54 608.713 207.188 608.023C207.019 607.953 206.893 607.868 206.78 607.77C204.935 606.235 204.189 601.981 203.879 600.108C204.273 600.489 204.696 600.798 205.146 601.08C207.456 602.559 210.273 602.897 212.977 603.545C220.821 605.446 228.722 607.15 236.51 609.248C240.284 610.262 244.157 611.333 247.847 612.009L247.875 614.417Z" fill="#171727"/>
<path d="M204.598 640.372C204.415 639.414 210.513 633.767 211.372 632.753C213.653 630.021 215.766 627.091 218.146 624.444C221.667 620.543 226.793 616.754 222.427 611.36C224.145 610.234 228.244 610.346 230.286 610.445C231.271 610.487 232.116 610.755 232.877 611.29C228.722 614.036 226.539 617.289 223.258 621.078C218.766 626.246 215.048 631.232 211.583 637.217C208.499 642.527 207.837 648.991 204.894 654.286C204.865 649.709 205.457 644.893 204.598 640.372Z" fill="#171727"/>
<path d="M192.964 574.632C190.824 573.942 189.007 575.322 187.092 576.195C184.205 577.505 181.261 578.688 178.29 579.773C177.402 580.097 177.74 581.42 178.684 581.209C181.684 580.505 184.655 579.716 187.599 578.787C189.711 578.125 192.345 577.759 193.359 575.604C193.542 575.196 193.387 574.773 192.964 574.632Z" fill="#171727"/>
<path d="M197.4 633.007C196.006 630.852 193.583 629.275 191.626 627.627C189.457 625.81 187.288 624.007 185.105 622.219C183.739 621.092 181.753 622.979 183.119 624.205C185.218 626.078 187.316 627.979 189.387 629.88C191.274 631.612 193.105 633.88 195.372 635.049C196.611 635.682 198.259 634.33 197.4 633.007Z" fill="#171727"/>
<path d="M205.43 582.448C204.937 579.335 202.628 576.335 201.107 573.646C200.797 573.082 199.839 573.463 200.05 574.096C200.91 576.631 203.078 580.406 202.529 582.941C202.219 584.377 201.064 585.433 200.431 586.743C199.712 588.236 199.431 589.63 199.459 591.25C199.487 592.757 201.459 593.728 202.557 592.531C204.895 589.982 205.979 585.884 205.43 582.448Z" fill="#171727"/>
<path d="M109.974 494.963C103.608 493.231 97.0733 491.794 91.3555 488.358C85.8349 485.048 78.8355 482.443 74.1177 478.176C72.1319 476.387 74.2726 473.613 76.5259 474.035C81.9198 475.049 86.863 478.922 91.1161 482.288C97.0311 486.978 103.002 489.794 109.847 492.696L109.974 494.963Z" fill="#171727"/>
<path d="M279.102 736.758C278.412 735.871 277.454 735.35 276.454 734.913C275.595 734.533 274.75 734.223 273.821 734.054C272.455 733.815 271.37 734.181 270.244 734.927C268.962 735.772 268.624 737.533 269.765 738.688C270.244 739.181 270.666 739.744 271.272 740.096C271.948 740.49 272.342 740.504 273.102 740.997C273.68 741.363 273.976 741.8 274.891 742.194C275.919 742.631 276.792 742.434 277.806 742.237C278.637 742.068 279.496 741.223 279.651 740.392C279.933 739.082 279.989 737.885 279.102 736.758Z" fill="#171727"/>
<path d="M215.257 716.492C213.314 711.844 208.413 708.352 204.399 705.479C199.442 701.93 193.921 699.465 188.048 697.916C187.837 697.86 187.767 698.169 187.964 698.24C193.611 700.141 198.864 702.887 203.484 706.69C207.357 709.887 209.666 714.365 213.328 717.618C214.102 718.294 215.736 717.647 215.257 716.492Z" fill="#171727"/>
<path d="M70.2706 307.205L52.1314 306.177L30.8235 300.826L24.6128 298.136L19.5006 295.094L-27.3403 267.758L-27.5938 246.732L31.6121 280.574L68.7919 303.276L70.2706 307.205Z" fill="#130E25"/>
<path d="M106.89 434.039L105.848 428.955L102.918 410.013L99.5946 396.07L90.8912 396.338L76.1038 396.93L76.6953 395.211L70.4705 395.282L54.4297 375.086L84.8213 375.41L105.707 390.001L106.89 434.039Z" fill="#130E25"/>
<path d="M245.271 581.223L242.271 571.097L229.3 507.103L211.541 509.976L202.824 531.988L203.429 512.483L188.403 510.75L188.149 512.722L183.262 511.891L173.939 511.102L165.602 507.23L154.448 499.315L137.773 488.119L137.872 487.978L150.519 484.02L158.11 481.415L175.08 486.696L197.613 494.442L216.118 498.625L233.483 503.23L242.187 562.788L245.271 581.223Z" fill="#130E25"/>
<path d="M299.276 741.462L285.418 727.59L267.194 729.688L264.758 729.97L264.955 729.505L270.884 715.69L249.309 720.591L222.889 720.478L216.875 721.759L218.311 718.647L220.199 714.619L238.366 702.395L239.774 701.452L248.351 697.579L257.928 699.888L267.87 707.55L287.756 723.224L296.149 731.942L299.276 741.462Z" fill="#130E25"/>
<path d="M137.801 487.766C141.11 486.457 144.448 485.246 147.772 484.006C149.448 483.401 151.095 482.753 152.743 482.105L157.7 480.19L158.052 480.049L158.503 480.176L168.53 482.978C171.854 483.964 175.22 484.865 178.501 485.964L188.374 489.259C191.669 490.344 194.936 491.527 198.218 492.653L198.021 492.597C201.02 493.343 204.02 494.033 207.006 494.836L215.949 497.188C221.878 498.92 227.75 500.822 233.679 502.483L234.172 502.624L234.229 503.103C235.2 510.793 236.327 518.468 237.595 526.115C238.89 533.762 240.256 541.395 241.636 549.028C242.341 552.845 242.974 556.662 243.622 560.492C244.256 564.309 245.059 568.111 245.706 571.928L249.833 594.813L249.861 594.968V595.151L250.058 607.939L250.1 620.726C250.1 629.247 250.016 637.781 249.889 646.301L249.875 646.09L251.621 661.835C251.917 664.455 252.143 667.088 252.41 669.722C252.678 672.355 252.917 674.975 253.128 677.622L252.706 677.679C252.143 675.087 251.636 672.51 251.114 669.919C250.607 667.328 250.058 664.736 249.593 662.145L246.72 646.569L246.706 646.513V646.358C246.354 637.837 246.059 629.317 245.819 620.783L245.523 607.995L245.368 595.207L245.397 595.545L241.848 572.547C240.608 564.886 239.651 557.183 238.792 549.465C237.933 541.747 237.045 534.044 236.102 526.34C235.13 518.651 234.017 510.976 232.75 503.314L233.299 503.934C230.314 503.202 227.314 502.497 224.314 501.836L215.315 499.808L206.245 498.089C203.217 497.54 200.218 496.864 197.204 496.259L197.119 496.245L197.007 496.202C193.739 495.076 190.444 494.005 187.191 492.836L177.403 489.372C174.164 488.133 170.854 487.133 167.573 486.006L157.743 482.626L158.545 482.612L153.433 484.147C151.743 484.682 150.025 485.133 148.293 485.569C144.842 486.443 141.406 487.358 137.942 488.161L137.801 487.766Z" fill="#B29FB0"/>
<path d="M-27.5217 246.605C-19.2548 250.901 -11.0584 255.337 -2.89012 259.815C5.29224 264.266 13.4323 268.814 21.5443 273.406C25.6003 275.701 29.6703 277.954 33.6559 280.363C37.6132 282.813 41.5706 285.278 45.4999 287.799L69.0752 302.825L69.2301 302.924L69.2864 303.093C70.6666 306.966 72.1031 310.825 73.5396 314.669C74.9761 318.528 76.4689 322.359 77.9335 326.204L77.9476 326.26L77.9617 326.316C78.511 330.344 79.0884 334.372 79.708 338.4L81.5248 350.469C82.7782 358.511 83.9471 366.566 85.1301 374.622L84.609 373.777L106.522 388.832L107.114 389.24L107.142 389.972C107.452 398.535 107.691 407.084 107.903 415.646C108.1 424.209 108.269 432.771 108.367 441.334C108.381 449.911 108.903 458.445 109.184 467.008C109.522 475.57 109.804 484.119 110.001 492.696L109.719 492.71C108.903 484.175 108.17 475.641 107.494 467.092L106.48 454.276C106.1 450.009 106.044 445.714 105.846 441.447C105.48 432.884 105.185 424.321 104.917 415.759C104.664 407.196 104.424 398.634 104.269 390.057L104.875 391.198L83.2147 375.777L82.7641 375.453L82.6937 374.932C81.6938 366.848 80.7502 358.764 79.8489 350.68L78.4546 338.555C78.004 334.513 77.511 330.471 76.99 326.429L77.0181 326.542C75.5816 322.683 74.1874 318.824 72.7368 314.979C71.2722 311.135 69.8216 307.29 68.3147 303.459L68.54 303.727L44.4154 289.644C40.3876 287.306 36.388 284.912 32.4025 282.517C30.4308 281.278 28.3746 280.194 26.3607 279.025L20.319 275.532C12.2634 270.871 4.22191 266.181 -3.76328 261.378C-11.7907 256.618 -19.7618 251.802 -27.6484 246.859L-27.5217 246.605Z" fill="#B29FB0"/>
<path d="M248.381 697.508C251.62 698.071 254.831 698.733 258.042 699.409L258.127 699.423L258.225 699.494C260.775 701.353 263.281 703.268 265.816 705.155C268.323 707.084 270.76 709.084 273.168 711.126C275.576 713.168 277.998 715.196 280.463 717.168C282.942 719.126 285.434 721.055 287.983 722.928L287.997 722.942L288.026 722.97C290.913 725.787 293.8 728.618 296.644 731.477L296.743 731.575L296.799 731.716L300.01 741.208L300.053 741.321V741.448V741.462L300.01 741.236L300.377 742.377L300.222 742.109C302.771 744.968 305.278 747.855 307.77 750.771L307.728 750.728C309.573 752.545 311.404 754.348 313.206 756.179C315.037 757.995 316.798 759.868 318.586 761.727L318.488 761.826C316.53 760.15 314.558 758.488 312.629 756.77C310.685 755.08 308.756 753.348 306.869 751.616L306.855 751.602L306.827 751.573C304.207 748.771 301.616 745.954 299.081 743.081L298.968 742.954L298.926 742.799L298.56 741.659L298.518 741.546V741.433V741.419L298.56 741.659L295.546 732.11L295.701 732.364C292.941 729.42 290.223 726.435 287.504 723.435L287.547 723.463C285.124 721.435 282.674 719.45 280.195 717.506C277.703 715.563 275.168 713.689 272.619 711.83C270.055 709.986 267.577 708.042 265.056 706.141C262.591 704.169 260.099 702.24 257.648 700.254L257.831 700.339C254.662 699.479 251.508 698.606 248.367 697.621L248.381 697.508Z" fill="#B29FB0"/>
<path d="M434 791.5L401.834 800.287L375.526 799.611L361.02 797.414L348.909 804.372L334.15 809.442L304.631 805.512L288.393 813.188L275.718 818.976L246.312 817.863L235.215 809.526L231.469 806.723L234.609 778.923L238.454 756.77L239.299 756.545L258.889 751.405L277.084 755.855L279.14 756.362L294.9 764.206L300.871 750.63L302.814 746.18L302.913 745.926L302.997 745.771L304.603 744.659L316.095 736.702L355.387 746.715L367.583 749.827L386.624 757.221L397.707 770.121L398.214 770.684L398.665 770.853L425.409 779.81L433.239 790.457L434 791.5Z" fill="url(#paint26_linear_1_319)"/>
<path d="M433.238 790.457L428.576 791.781L417.408 793.626L403.917 794.908L396.129 786.359L384.102 779.599L385.341 776.585L393.002 774.557L398.664 770.854L425.408 779.81L433.238 790.457Z" fill="url(#paint27_linear_1_319)"/>
<path d="M359.724 789.654L350.386 795.4L332.571 801.456L320.164 794.598L306.123 789.964L300.18 767.67L310.221 760.516L334.585 764.276L353.879 781.12L359.724 789.654Z" fill="url(#paint28_linear_1_319)"/>
<path d="M289.151 776.726L286.264 796.753L272.604 803.71L258.802 799.612L250.901 780.641L245.592 776.459L242.226 769.389L240.297 763.587L239.297 756.545L258.873 751.391L277.068 755.855L282.011 761.277L289.151 776.726Z" fill="url(#paint29_linear_1_319)"/>
<path d="M397.706 770.121L391.03 773.515L377.003 775.6L351.963 762.094L339.852 758.517L323.064 753.573L302.911 745.926L302.672 745.842L316.093 736.702L355.385 746.715L367.582 749.827L386.622 757.221L397.706 770.121Z" fill="url(#paint30_linear_1_319)"/>
<path d="M241.988 775.332C244.185 775.473 246.044 777.12 248.057 777.881C252.353 779.514 257.296 779.754 261.845 780.148C269.393 780.81 274.956 780.937 281.308 776.571C283.829 774.839 286.772 773.698 289.406 772.233C287.702 776.472 281.069 781.796 276.872 783.824C274.787 784.824 272.407 785.542 270.633 787.091C268.858 788.64 268.464 790.767 267.112 792.598C263.563 797.442 258.901 801.555 255.099 806.216C255.592 802.188 252.592 803.033 256.662 799.752C260.732 796.471 264 792.767 267.52 788.838C268.943 787.26 271.224 785.486 271.943 783.486C269.295 782.711 266.07 783.134 263.352 782.937C258.014 782.556 252.325 780.965 247.212 779.402C246.227 779.106 238.833 776.979 241.833 774.966C241.635 775.106 241.452 775.219 241.988 775.332Z" fill="#171727"/>
<path d="M354.867 792.964C339.291 788.147 322.25 786.133 306.505 791.076C306.407 791.105 306.449 791.259 306.548 791.231C315.11 789.302 323.447 789.091 332.024 791.133C339.305 792.865 346.459 795.428 353.853 796.611C356.233 797.005 357.261 793.71 354.867 792.964Z" fill="#171727"/>
<path d="M359.583 762.897C355.598 760.516 350.204 759.517 345.697 760.615C343.486 761.164 343.895 764.854 346.247 764.671C352.077 764.206 357.823 767.896 360.288 773.022C360.907 774.318 362.583 773.966 363.273 773.022C366.217 769.121 363.175 765.051 359.583 762.897Z" fill="url(#paint31_linear_1_319)"/>
<path d="M300.801 750.602C301.435 748.954 302.096 747.307 302.758 745.673L302.787 745.617L302.857 745.574L309.307 740.885C311.462 739.321 313.617 737.772 315.785 736.251L315.997 736.11L316.25 736.167C320.545 737.237 324.855 738.237 329.136 739.392C333.432 740.49 337.685 741.687 341.952 742.87C346.219 744.081 350.501 745.208 354.782 746.335C359.077 747.419 363.373 748.504 367.682 749.504H367.696L367.724 749.518C374.118 751.855 380.526 754.193 386.892 756.616L387.032 756.672L387.145 756.799L392.976 763.488C394.933 765.713 396.862 767.953 398.778 770.206L398.482 769.995C402.975 771.558 407.538 773.023 412.044 774.628C416.551 776.219 421.072 777.769 425.564 779.402L425.705 779.459L425.775 779.557C428.324 783.148 430.817 786.782 433.31 790.415L433.197 790.5C430.479 787.035 427.747 783.571 425.071 780.064L425.282 780.219C420.705 778.811 416.171 777.332 411.608 775.881C409.326 775.163 407.059 774.417 404.791 773.656L397.975 771.375L397.806 771.318L397.679 771.164C393.778 766.713 390.004 762.15 386.159 757.644L386.413 757.827C380.075 755.32 373.78 752.729 367.471 750.137L367.513 750.151C363.246 748.968 358.965 747.856 354.669 746.743C350.374 745.673 346.064 744.631 341.755 743.645C337.445 742.645 333.122 741.659 328.826 740.561C324.517 739.533 320.25 738.336 315.968 737.223L316.419 737.138C314.236 738.645 312.025 740.124 309.814 741.589C307.603 743.053 305.406 744.546 303.153 745.969L303.237 745.87L300.942 750.658L300.801 750.602Z" fill="#B29FB0"/>
<path d="M239.285 756.475C242.454 755.277 245.693 754.292 248.932 753.376C252.171 752.419 255.495 751.799 258.805 751.123L258.889 751.109L258.945 751.123C260.621 751.616 262.297 752.024 264.001 752.405C265.691 752.799 267.409 753.109 269.113 753.447C272.536 754.094 275.916 754.883 279.31 755.644L279.38 755.658L279.465 755.7C282.098 756.982 284.704 758.348 287.281 759.756C289.872 761.136 292.421 762.615 294.928 764.15L294.872 764.277C292.125 763.206 289.421 762.066 286.76 760.826C284.084 759.629 281.436 758.362 278.817 757.038L278.972 757.094C275.606 756.193 272.24 755.334 268.902 754.334C267.226 753.841 265.564 753.32 263.889 752.897C262.213 752.447 260.523 752.038 258.819 751.7H258.959C255.748 752.742 252.537 753.827 249.256 754.587C245.975 755.39 242.679 756.108 239.327 756.629L239.285 756.475Z" fill="#B29FB0"/>
</g>
<defs>
<linearGradient id="paint0_linear_1_319" x1="180.576" y1="549.37" x2="272.18" y2="445.576" gradientUnits="userSpaceOnUse">
<stop stop-color="#0E0E1A"/>
<stop offset="0.9888" stop-color="#141424"/>
</linearGradient>
<linearGradient id="paint1_linear_1_319" x1="1076.97" y1="770.112" x2="1114.27" y2="637.451" gradientUnits="userSpaceOnUse">
<stop stop-color="#0E0E1A"/>
<stop offset="0.9888" stop-color="#141424"/>
</linearGradient>
<linearGradient id="paint2_linear_1_319" x1="1192.55" y1="762.869" x2="1248.24" y2="608.977" gradientUnits="userSpaceOnUse">
<stop stop-color="#0E0E1A"/>
<stop offset="0.9888" stop-color="#141424"/>
</linearGradient>
<linearGradient id="paint3_linear_1_319" x1="1334.42" y1="738.972" x2="1428.45" y2="503.896" gradientUnits="userSpaceOnUse">
<stop stop-color="#0E0E1A"/>
<stop offset="0.9888" stop-color="#141424"/>
</linearGradient>
<linearGradient id="paint4_linear_1_319" x1="1527.43" y1="704.517" x2="1518.33" y2="369.71" gradientUnits="userSpaceOnUse">
<stop stop-color="#24243A"/>
<stop offset="0.9944" stop-color="#10101E"/>
</linearGradient>
<linearGradient id="paint5_linear_1_319" x1="1023.88" y1="478.65" x2="1155.12" y2="901.307" gradientUnits="userSpaceOnUse">
<stop stop-color="#573D64"/>
<stop offset="1" stop-color="#151D2F"/>
</linearGradient>
<linearGradient id="paint6_linear_1_319" x1="1122.55" y1="448.015" x2="1253.78" y2="870.67" gradientUnits="userSpaceOnUse">
<stop stop-color="#573D64"/>
<stop offset="1" stop-color="#151D2F"/>
</linearGradient>
<linearGradient id="paint7_linear_1_319" x1="1115.48" y1="450.211" x2="1246.71" y2="872.85" gradientUnits="userSpaceOnUse">
<stop stop-color="#573D64"/>
<stop offset="1" stop-color="#151D2F"/>
</linearGradient>
<linearGradient id="paint8_linear_1_319" x1="1233.78" y1="653.232" x2="1291.47" y2="834.735" gradientUnits="userSpaceOnUse">
<stop stop-color="#573D64"/>
<stop offset="1" stop-color="#151D2F"/>
</linearGradient>
<linearGradient id="paint9_linear_1_319" x1="1136.21" y1="684.247" x2="1193.9" y2="865.749" gradientUnits="userSpaceOnUse">
<stop stop-color="#573D64"/>
<stop offset="1" stop-color="#151D2F"/>
</linearGradient>
<linearGradient id="paint10_linear_1_319" x1="1249.19" y1="408.69" x2="1380.42" y2="831.346" gradientUnits="userSpaceOnUse">
<stop stop-color="#573D64"/>
<stop offset="1" stop-color="#151D2F"/>
</linearGradient>
<linearGradient id="paint11_linear_1_319" x1="1393.21" y1="368.66" x2="1558.8" y2="554.414" gradientUnits="userSpaceOnUse">
<stop stop-color="#573D64"/>
<stop offset="1" stop-color="#151D2F"/>
</linearGradient>
<linearGradient id="paint12_linear_1_319" x1="1292.42" y1="655.927" x2="1310.81" y2="822.825" gradientUnits="userSpaceOnUse">
<stop stop-color="#573D64"/>
<stop offset="1" stop-color="#151D2F"/>
</linearGradient>
<linearGradient id="paint13_linear_1_319" x1="1422.98" y1="584.637" x2="1455.94" y2="820.684" gradientUnits="userSpaceOnUse">
<stop stop-color="#573D64"/>
<stop offset="1" stop-color="#151D2F"/>
</linearGradient>
<linearGradient id="paint14_linear_1_319" x1="1403.66" y1="473.099" x2="1430.76" y2="811.459" gradientUnits="userSpaceOnUse">
<stop stop-color="#573D64"/>
<stop offset="1" stop-color="#151D2F"/>
</linearGradient>
<linearGradient id="paint15_linear_1_319" x1="1452.77" y1="471.174" x2="1584.01" y2="893.824" gradientUnits="userSpaceOnUse">
<stop stop-color="#573D64"/>
<stop offset="1" stop-color="#151D2F"/>
</linearGradient>
<linearGradient id="paint16_linear_1_319" x1="1463.66" y1="180.433" x2="1596.37" y2="396.109" gradientUnits="userSpaceOnUse">
<stop stop-color="#573D64"/>
<stop offset="1" stop-color="#151D2F"/>
</linearGradient>
<linearGradient id="paint17_linear_1_319" x1="1529.61" y1="188.41" x2="1697.04" y2="-95.3571" gradientUnits="userSpaceOnUse">
<stop stop-color="#573D64"/>
<stop offset="1" stop-color="#151D2F"/>
</linearGradient>
<linearGradient id="paint18_linear_1_319" x1="127.382" y1="267.523" x2="-89.438" y2="358.134" gradientUnits="userSpaceOnUse">
<stop stop-color="#573D64"/>
<stop offset="1" stop-color="#151D2F"/>
</linearGradient>
<linearGradient id="paint19_linear_1_319" x1="188.897" y1="414.709" x2="-27.9344" y2="505.325" gradientUnits="userSpaceOnUse">
<stop stop-color="#573D64"/>
<stop offset="1" stop-color="#151D2F"/>
</linearGradient>
<linearGradient id="paint20_linear_1_319" x1="143.563" y1="909.72" x2="160.227" y2="688.45" gradientUnits="userSpaceOnUse">
<stop stop-color="#24243A"/>
<stop offset="0.9944" stop-color="#10101E"/>
</linearGradient>
<linearGradient id="paint21_linear_1_319" x1="240.738" y1="492.86" x2="111.291" y2="749.597" gradientUnits="userSpaceOnUse">
<stop stop-color="#573D64"/>
<stop offset="1" stop-color="#151D2F"/>
</linearGradient>
<linearGradient id="paint22_linear_1_319" x1="217.005" y1="657.409" x2="198.787" y2="746.104" gradientUnits="userSpaceOnUse">
<stop stop-color="#573D64"/>
<stop offset="1" stop-color="#151D2F"/>
</linearGradient>
<linearGradient id="paint23_linear_1_319" x1="253.783" y1="684.412" x2="244.674" y2="767.348" gradientUnits="userSpaceOnUse">
<stop stop-color="#573D64"/>
<stop offset="1" stop-color="#151D2F"/>
</linearGradient>
<linearGradient id="paint24_linear_1_319" x1="56.2755" y1="895.279" x2="61.651" y2="785.027" gradientUnits="userSpaceOnUse">
<stop stop-color="#24243A"/>
<stop offset="0.9944" stop-color="#10101E"/>
</linearGradient>
<linearGradient id="paint25_linear_1_319" x1="149.314" y1="574.792" x2="119.589" y2="836.085" gradientUnits="userSpaceOnUse">
<stop stop-color="#573D64"/>
<stop offset="1" stop-color="#151D2F"/>
</linearGradient>
<linearGradient id="paint26_linear_1_319" x1="289.38" y1="843.113" x2="290.765" y2="787.862" gradientUnits="userSpaceOnUse">
<stop stop-color="#24243A"/>
<stop offset="0.9944" stop-color="#10101E"/>
</linearGradient>
<linearGradient id="paint27_linear_1_319" x1="411.554" y1="699.683" x2="407.24" y2="827.21" gradientUnits="userSpaceOnUse">
<stop stop-color="#573D64"/>
<stop offset="1" stop-color="#151D2F"/>
</linearGradient>
<linearGradient id="paint28_linear_1_319" x1="332.71" y1="697.014" x2="328.395" y2="824.543" gradientUnits="userSpaceOnUse">
<stop stop-color="#573D64"/>
<stop offset="1" stop-color="#151D2F"/>
</linearGradient>
<linearGradient id="paint29_linear_1_319" x1="266.661" y1="694.78" x2="262.346" y2="822.308" gradientUnits="userSpaceOnUse">
<stop stop-color="#573D64"/>
<stop offset="1" stop-color="#151D2F"/>
</linearGradient>
<linearGradient id="paint30_linear_1_319" x1="352.236" y1="697.666" x2="347.921" y2="825.202" gradientUnits="userSpaceOnUse">
<stop stop-color="#573D64"/>
<stop offset="1" stop-color="#151D2F"/>
</linearGradient>
<linearGradient id="paint31_linear_1_319" x1="350.022" y1="777.886" x2="350.407" y2="768.698" gradientUnits="userSpaceOnUse">
<stop stop-color="#24243A"/>
<stop offset="0.9944" stop-color="#10101E"/>
</linearGradient>
<clipPath id="clip0_1_319">
<rect width="1784" height="846" fill="white" transform="translate(-32)"/>
</clipPath>
<clipPath id="clip1_1_319">
<rect width="774.967" height="911.726" fill="white" transform="translate(-37.3047 67) rotate(11.431)"/>
</clipPath>
<clipPath id="clip2_1_319">
<rect width="1061.24" height="880.443" fill="white" transform="translate(618.523 187.366) rotate(-8.90994)"/>
</clipPath>
</defs>
</svg>
